<svg id="visual" viewBox="0 0 900 600" width="900" height="600" xmlns="http://www.w3.org/2000/svg" xmlns:xlink="http://www.w3.org/1999/xlink" version="1.1"><rect x="0" y="0" width="900" height="600" fill="#e0e0e0"></rect><defs><linearGradient id="grad1_0" x1="33.3%" y1="100%" x2="100%" y2="0%"><stop offset="20%" stop-color="#3f5e78" stop-opacity="1"></stop><stop offset="80%" stop-color="#3f5e78" stop-opacity="1"></stop></linearGradient></defs><defs><linearGradient id="grad1_1" x1="33.3%" y1="100%" x2="100%" y2="0%"><stop offset="20%" stop-color="#3f5e78" stop-opacity="1"></stop><stop offset="80%" stop-color="#e0e0e0" stop-opacity="1"></stop></linearGradient></defs><defs><linearGradient id="grad2_0" x1="0%" y1="100%" x2="66.7%" y2="0%"><stop offset="20%" stop-color="#3f5e78" stop-opacity="1"></stop><stop offset="80%" stop-color="#3f5e78" stop-opacity="1"></stop></linearGradient></defs><defs><linearGradient id="grad2_1" x1="0%" y1="100%" x2="66.7%" y2="0%"><stop offset="20%" stop-color="#e0e0e0" stop-opacity="1"></stop><stop offset="80%" stop-color="#3f5e78" stop-opacity="1"></stop></linearGradient></defs><g transform="translate(900, 600)"><path d="M-324.5 0C-329.5 -17.6 -334.4 -35.2 -316.7 -45.5C-299 -55.9 -258.7 -59 -259.1 -76.1C-259.4 -93.2 -300.6 -124.3 -295.2 -134.8C-289.8 -145.3 -237.9 -135.1 -215.4 -138.4C-192.8 -141.7 -199.5 -158.6 -196.5 -170.3C-193.4 -181.9 -180.6 -188.4 -171.6 -198C-162.5 -207.6 -157.3 -220.3 -151.9 -236.4C-146.6 -252.5 -141.1 -272 -131.3 -287.4C-121.4 -302.9 -107.2 -314.3 -91 -309.9C-74.8 -305.5 -56.5 -285.3 -41 -285.1C-25.5 -284.9 -12.7 -304.7 0 -324.5L0 0Z" fill="#8f9cab"></path><path d="M-162.2 0C-164.7 -8.8 -167.2 -17.6 -158.4 -22.8C-149.5 -27.9 -129.3 -29.5 -129.5 -38C-129.7 -46.6 -150.3 -62.2 -147.6 -67.4C-144.9 -72.6 -119 -67.5 -107.7 -69.2C-96.4 -70.9 -99.8 -79.3 -98.2 -85.1C-96.7 -91 -90.3 -94.2 -85.8 -99C-81.3 -103.8 -78.6 -110.1 -76 -118.2C-73.3 -126.2 -70.6 -136 -65.6 -143.7C-60.7 -151.5 -53.6 -157.2 -45.5 -155C-37.4 -152.8 -28.2 -142.6 -20.5 -142.5C-12.7 -142.4 -6.4 -152.3 0 -162.2L0 0Z" fill="#3f5e78"></path></g><g transform="translate(0, 0)"><path d="M324.5 0C329.7 16.9 334.9 33.8 321.2 46.2C307.5 58.6 274.7 66.5 258.1 75.8C241.5 85.1 240.9 95.9 242.9 110.9C244.8 125.9 249.4 145.2 240.6 154.6C231.8 164 209.8 163.6 198.8 172.2C187.7 180.8 187.7 198.4 180.7 208.6C173.8 218.8 159.8 221.6 151.4 235.6C143 249.5 140.1 274.6 127.9 280.2C115.8 285.7 94.4 271.6 78.6 267.7C62.8 263.8 52.6 270 40.4 281.1C28.2 292.3 14.1 308.4 0 324.5L0 0Z" fill="#8f9cab"></path><path d="M162.2 0C164.9 8.4 167.5 16.9 160.6 23.1C153.7 29.3 137.4 33.2 129.1 37.9C120.7 42.6 120.4 47.9 121.4 55.5C122.4 63 124.7 72.6 120.3 77.3C115.9 82 104.9 81.8 99.4 86.1C93.9 90.4 93.9 99.2 90.4 104.3C86.9 109.4 79.9 110.8 75.7 117.8C71.5 124.8 70 137.3 64 140.1C57.9 142.8 47.2 135.8 39.3 133.8C31.4 131.9 26.3 135 20.2 140.6C14.1 146.1 7.1 154.2 0 162.2L0 0Z" fill="#3f5e78"></path></g></svg>