<svg id="visual" viewBox="0 0 900 600" width="900" height="600" xmlns="http://www.w3.org/2000/svg" xmlns:xlink="http://www.w3.org/1999/xlink" version="1.1"><rect x="0" y="0" width="900" height="600" fill="#0a0a0f"></rect><defs><linearGradient id="grad1_0" x1="33.3%" y1="100%" x2="100%" y2="0%"><stop offset="20%" stop-color="#8b4513" stop-opacity="1"></stop><stop offset="80%" stop-color="#8b4513" stop-opacity="1"></stop></linearGradient></defs><defs><linearGradient id="grad1_1" x1="33.3%" y1="100%" x2="100%" y2="0%"><stop offset="20%" stop-color="#8b4513" stop-opacity="1"></stop><stop offset="80%" stop-color="#5a1a3a" stop-opacity="1"></stop></linearGradient></defs><defs><linearGradient id="grad1_2" x1="33.3%" y1="100%" x2="100%" y2="0%"><stop offset="20%" stop-color="#0a0a0f" stop-opacity="1"></stop><stop offset="80%" stop-color="#5a1a3a" stop-opacity="1"></stop></linearGradient></defs><defs><linearGradient id="grad2_0" x1="0%" y1="100%" x2="66.7%" y2="0%"><stop offset="20%" stop-color="#8b4513" stop-opacity="1"></stop><stop offset="80%" stop-color="#8b4513" stop-opacity="1"></stop></linearGradient></defs><defs><linearGradient id="grad2_1" x1="0%" y1="100%" x2="66.7%" y2="0%"><stop offset="20%" stop-color="#5a1a3a" stop-opacity="1"></stop><stop offset="80%" stop-color="#8b4513" stop-opacity="1"></stop></linearGradient></defs><defs><linearGradient id="grad2_2" x1="0%" y1="100%" x2="66.7%" y2="0%"><stop offset="20%" stop-color="#5a1a3a" stop-opacity="1"></stop><stop offset="80%" stop-color="#0a0a0f" stop-opacity="1"></stop></linearGradient></defs><g transform="translate(900, 600)"><path d="M-324.5 0C-280.6 -11.4 -236.8 -22.8 -239.3 -42.2C-241.8 -61.6 -290.7 -88.9 -304.9 -111C-319.2 -133 -298.8 -149.8 -275.4 -159C-252 -168.2 -225.7 -169.9 -204.5 -171.6C-183.4 -173.3 -167.4 -175 -160.1 -190.7C-152.8 -206.5 -154.2 -236.2 -145 -251.1C-135.8 -266.1 -116.1 -266.3 -99.5 -273.5C-83 -280.6 -69.7 -294.6 -53.7 -304.3C-37.6 -314 -18.8 -319.2 0 -324.5L0 0Z" fill="#2d1b3d"></path><path d="M-216.3 0C-187.1 -7.6 -157.9 -15.2 -159.5 -28.1C-161.2 -41.1 -193.8 -59.3 -203.3 -74C-212.8 -88.7 -199.2 -99.9 -183.6 -106C-168 -112.1 -150.5 -113.3 -136.4 -114.4C-122.2 -115.6 -111.6 -116.7 -106.7 -127.2C-101.8 -137.6 -102.8 -157.5 -96.7 -167.4C-90.6 -177.4 -77.4 -177.5 -66.4 -182.3C-55.3 -187.1 -46.5 -196.4 -35.8 -202.9C-25.1 -209.3 -12.5 -212.8 0 -216.3L0 0Z" fill="#7d2d4a"></path><path d="M-108.2 0C-93.5 -3.8 -78.9 -7.6 -79.8 -14.1C-80.6 -20.5 -96.9 -29.6 -101.6 -37C-106.4 -44.3 -99.6 -49.9 -91.8 -53C-84 -56.1 -75.2 -56.6 -68.2 -57.2C-61.1 -57.8 -55.8 -58.3 -53.4 -63.6C-50.9 -68.8 -51.4 -78.7 -48.3 -83.7C-45.3 -88.7 -38.7 -88.8 -33.2 -91.2C-27.7 -93.5 -23.2 -98.2 -17.9 -101.4C-12.5 -104.7 -6.3 -106.4 0 -108.2L0 0Z" fill="#8b4513"></path></g><g transform="translate(0, 0)"><path d="M324.5 0C299.6 15.7 274.8 31.3 263.9 46.5C253.1 61.8 256.2 76.6 258.4 94.1C260.6 111.6 262 131.7 258.1 149C254.2 166.3 245.1 180.6 236.7 198.6C228.3 216.7 220.6 238.4 201.8 240.5C183.1 242.6 153.3 225 139 240.8C124.7 256.5 125.9 305.5 111 304.9C96.1 304.4 65.1 254.2 43.9 249.2C22.8 244.1 11.4 284.3 0 324.5L0 0Z" fill="#2d1b3d"></path><path d="M216.3 0C199.8 10.4 183.2 20.9 176 31C168.7 41.2 170.8 51 172.3 62.7C173.8 74.4 174.6 87.8 172.1 99.3C169.5 110.8 163.4 120.4 157.8 132.4C152.2 144.4 147.1 159 134.6 160.4C122.1 161.8 102.2 150 92.7 160.5C83.1 171 83.9 203.7 74 203.3C64.1 202.9 43.4 169.4 29.3 166.1C15.2 162.8 7.6 189.5 0 216.3L0 0Z" fill="#7d2d4a"></path><path d="M108.2 0C99.9 5.2 91.6 10.4 88 15.5C84.4 20.6 85.4 25.5 86.1 31.4C86.9 37.2 87.3 43.9 86 49.7C84.7 55.4 81.7 60.2 78.9 66.2C76.1 72.2 73.5 79.5 67.3 80.2C61 80.9 51.1 75 46.3 80.3C41.6 85.5 42 101.8 37 101.6C32 101.5 21.7 84.7 14.6 83.1C7.6 81.4 3.8 94.8 0 108.2L0 0Z" fill="#8b4513"></path></g></svg>